<svg width="121" height="286" viewBox="0 0 121 286" fill="none" xmlns="http://www.w3.org/2000/svg">
<path d="M35.9235 102.501C35.9235 102.501 -32.0023 228.595 113.547 237.221L120.555 243.15V201.642L71.6554 186.548L70.2178 86.2808" fill="#E2E2E2"/>
<path d="M71.3574 165.755C59.717 170.585 50.953 191.697 50.953 217.012C50.953 218.283 50.9753 219.543 51.0198 220.792C62.8744 228.043 78.865 233.464 100.176 236.032C101.348 229.76 101.93 223.392 101.914 217.012C101.941 209.668 101.161 202.344 99.5908 195.171L71.6555 186.548L71.3574 165.755Z" fill="black"/>
<path d="M44.9905 101.619L87.0721 98.7358L94.724 101.852L98.3202 285.63H59.2338L63.3665 278.224L44.9905 101.619Z" fill="#EDEEEF"/>
<path d="M49.7446 13.2373V19.8797C49.7446 25.0159 53.251 29.4885 58.2388 30.7144L68.809 33.3124V7.34192L60.0199 5.18172C57.5449 4.57341 54.9277 5.13658 52.9219 6.70903C50.9162 8.28149 49.7446 10.6887 49.7446 13.2373V13.2373Z" fill="#EDEEEF"/>
<path d="M49.7446 19.8799C49.7446 25.016 53.251 29.4886 58.2388 30.7145L68.809 33.3125" stroke="black" stroke-width="1.5" stroke-linecap="round" stroke-linejoin="round"/>
<path d="M60.5139 18.5617C60.7954 18.5617 61.0236 18.3335 61.0236 18.052C61.0236 17.7705 60.7954 17.5422 60.5139 17.5422C60.2324 17.5422 60.0042 17.7705 60.0042 18.052C60.0042 18.3335 60.2324 18.5617 60.5139 18.5617Z" fill="black"/>
<path d="M52.6848 18.5617C52.9663 18.5617 53.1945 18.3335 53.1945 18.052C53.1945 17.7705 52.9663 17.5422 52.6848 17.5422C52.4033 17.5422 52.175 17.7705 52.175 18.052C52.175 18.3335 52.4033 18.5617 52.6848 18.5617Z" fill="black"/>
<path d="M54.9815 21.0927V13.2373H51.0464" stroke="black" stroke-width="1.5" stroke-linecap="round" stroke-linejoin="round"/>
<path d="M61.4742 13.2373H57.5388" stroke="black" stroke-width="1.5" stroke-linecap="round" stroke-linejoin="round"/>
<path d="M67.5533 17.2624V19.9904C69.0249 19.9904 70.2178 18.7975 70.2178 17.3259C70.2178 17.2442 70.2141 17.1634 70.2069 17.0834C70.0576 15.4289 67.5533 15.6012 67.5533 17.2624Z" fill="#EDEEEF"/>
<path d="M67.5533 19.9903C69.0249 19.9903 70.2178 18.7974 70.2178 17.3259" stroke="black" stroke-width="1.5" stroke-linecap="round" stroke-linejoin="round"/>
<path d="M57.1334 22.0107C57.4643 22.3416 57.913 22.5275 58.381 22.5275C58.8489 22.5275 59.2976 22.3416 59.6285 22.0107" stroke="#DC911B" stroke-width="1.5" stroke-linecap="round" stroke-linejoin="round"/>
<path d="M54.9817 21.0991L56.7029 21.5222" stroke="black" stroke-width="1.5" stroke-linecap="round" stroke-linejoin="round"/>
<path d="M35.9236 60.8707V102.501L94.8982 116.996V70.6312C94.8982 54.1911 83.6747 39.875 67.7097 35.9511H67.7097C60.0534 34.0693 51.9571 35.8115 45.7524 40.6758C39.5478 45.5401 35.9236 52.9866 35.9236 60.8707V60.8707Z" fill="#DC911B"/>
<path d="M63.3667 278.224L44.9906 101.618" stroke="black" stroke-width="1.5" stroke-linecap="round" stroke-linejoin="round"/>
<path d="M55.8423 29.8223C55.8423 29.8223 55.8423 38.3661 41.3451 37.5967L38.0264 34.278C38.0264 34.278 39.86 -3.55185 65.5965 1.36407C69.6649 2.14118 73.2921 4.5505 75.2646 8.19264C77.4653 12.2561 77.8189 18.1552 68.8856 24.5537" stroke="black" stroke-width="1.5" stroke-linecap="round" stroke-linejoin="round"/>
<path d="M36.7792 35.574C36.9139 35.574 40.1036 38.8984 40.1036 38.8984" stroke="#DC911B" stroke-width="1.5" stroke-linecap="round" stroke-linejoin="round"/>
<path d="M49.7446 16.7368C49.7446 16.7368 58.4344 14.5804 61.0237 9.2793C61.0237 9.2793 63.8566 16.62 67.5534 17.2624" stroke="black" stroke-width="1.5" stroke-linecap="round" stroke-linejoin="round"/>
<path d="M36.149 37.2361C36.149 37.2361 26.9843 42.4038 28.5417 54.9827C29.0337 59.1537 31.1284 62.9699 34.3829 65.6246C36.0537 67.0291 38.3637 67.3956 40.3872 66.5774C42.4107 65.7592 43.8166 63.8901 44.0417 61.7191C44.3118 59.2712 44.8311 56.758 45.7928 54.8629C49.7447 47.0759 37.8408 38.8983 37.8408 38.8983" stroke="black" stroke-width="1.5" stroke-linecap="round" stroke-linejoin="round"/>
<path d="M82.6801 43.7344C82.6801 43.7344 141.513 109.731 84.3683 143.515L75.0239 127.855L88.3217 103.621L75.0239 81.3386" stroke="black" stroke-width="1.5" stroke-linecap="round" stroke-linejoin="round"/>
<path d="M84.3682 143.515L69.7854 119.075" stroke="black" stroke-width="1.5" stroke-linecap="round" stroke-linejoin="round"/>
<path d="M14.0493 44.3157C13.5202 41.951 13.7561 39.4793 14.7229 37.2572C17.485 30.7724 25.0399 14.7118 32.3083 14.2086C41.4226 13.5776 38.5474 21.6041 35.3128 23.5209C33.5078 24.6571 31.1998 24.61 29.4426 23.4011C29.4426 23.4011 20.7128 34.0084 21.6556 37.2979C21.6556 37.2979 26.6872 37.2979 25.01 42.0898C23.5425 46.2828 15.9296 52.402 14.0493 44.3157Z" fill="#DC911B"/>
<path d="M21.2938 31.226C21.2938 31.226 28.1224 25.4522 21.2938 23.4755C14.4652 21.4988 -0.809189 42.7033 1.7066 66.0642C4.22239 89.4251 20.9029 104.879 35.9235 92.1206" stroke="black" stroke-width="1.5" stroke-linecap="round" stroke-linejoin="round"/>
<path d="M21.5414 46.6497C21.5414 46.6497 22.6507 57.0793 26.1054 63.3688L29.9944 60.0324" stroke="black" stroke-width="1.5" stroke-linecap="round" stroke-linejoin="round"/>
</svg>
